<?xml version="1.0" encoding="utf-8"?>
<!-- Generator: Adobe Illustrator 24.0.2, SVG Export Plug-In . SVG Version: 6.00 Build 0)  -->
<svg version="1.1" id="Layer_1" xmlns="http://www.w3.org/2000/svg" xmlns:xlink="http://www.w3.org/1999/xlink" x="0px" y="0px"
	 viewBox="0 0 1320 480" style="enable-background:new 0 0 1320 480;" xml:space="preserve">
<style type="text/css">
	.st0{fill-rule:evenodd;clip-rule:evenodd;fill:#F8F8F8;}
	.st1{fill-rule:evenodd;clip-rule:evenodd;fill:#E6E6E6;}
</style>
<g id="Mask">
	<rect id="path-1_1_" x="-31.7" y="-4" class="st0" width="1381.7" height="488"/>
</g>
<g id="DeFacto-Logo">
	<g>
		<path class="st1" d="M596.5,224.5c-3.8-0.9-7.6-0.5-11.5-0.4v29.7c0.2,0,0.3,0.1,0.4,0.1c2.7,0,5.3,0.1,8,0
			c7.1-0.2,13.2-5.6,14.3-12.5C608.9,233.7,604.1,226.4,596.5,224.5z M605.9,240.1c-0.5,6.3-5.9,12.1-13.4,12c-1.9,0-3.8,0-5.7,0
			v-26c0.1,0,0.1-0.1,0.2-0.1c2.5,0,5-0.1,7.5,0.1C601.3,226.7,606.5,233.3,605.9,240.1z"/>
		<path class="st1" d="M624.4,231.3c-6.1-1.2-12.2,2.7-13.6,8.9c-1.5,6.5,2.6,12.4,8.6,13.9c6.2,1.5,11.8-2.1,13.8-7.3
			c-0.5-0.2-1.1-0.5-1.6-0.7c-2.7,6-8.2,7.2-12.1,6c-3.8-1.1-6.9-4.9-6.9-8.4h21.2C634.3,238.7,631.1,232.6,624.4,231.3z
			 M612.5,241.7c0.1-4.6,4.6-8.7,9.4-8.8c5.7-0.1,9.6,4.5,9.9,8.8H612.5z"/>
		<polygon class="st1" points="636.8,253.9 638.6,253.9 638.6,239 651.3,239 651.3,237.1 638.7,237.1 638.7,225.9 652.1,225.9 
			652.1,224.1 636.8,224.1 		"/>
		<path class="st1" d="M675.7,231.3l-0.3-0.2l-0.3,0.2c0,0-0.2,0.1-0.6,0.3l0,0v4.6c-5.1-6.8-13.5-6.1-17.8-1.9
			c-4.6,4.4-4.9,11.6-0.6,16.4c2.1,2.3,4.8,3.6,7.9,3.8c4.3,0.2,7.7-1.6,10.5-5.2v4.7h1.8v-22.3l0,0
			C676,231.4,675.8,231.3,675.7,231.3z M664.8,252.5c-5.4,0-9.8-4.4-9.8-9.8c0-5.4,4.4-9.7,9.8-9.7c5.4,0,9.8,4.4,9.8,9.8
			C674.6,248.1,670.1,252.5,664.8,252.5z"/>
		<path class="st1" d="M699.5,239.5h0.4l0.2-0.3c0,0,0.1-0.2,0.4-0.5l0,0l0,0l0,0l0,0c-1.8-4.8-7-8.4-12.9-7.5
			c-5.5,0.9-9.8,6-9.7,11.6c0.1,5.8,4.5,10.8,10,11.5c6.3,0.8,11.1-3.2,12.6-7.5c-0.5-0.2-1.1-0.5-1.6-0.7c-2.7,6-8.2,7.2-12,6.1
			c-4-1.1-7-4.9-7.1-9.2c-0.1-4.4,2.6-8.2,6.9-9.6c1.9-0.6,3.8-0.6,5.6-0.1c3.1,0.9,5.2,3.1,6.5,6.1l0,0
			C699.2,239.5,699.5,239.5,699.5,239.5z"/>
		<path class="st1" d="M723.1,231.1c-6.4,0-11.6,5.2-11.6,11.6s5.2,11.6,11.6,11.6c6.4,0,11.6-5.2,11.6-11.6
			S729.5,231.1,723.1,231.1z M723.1,252.6c-5.4,0-9.8-4.4-9.8-9.8c0-5.4,4.4-9.8,9.8-9.8c5.4,0,9.8,4.4,9.8,9.8
			C732.9,248.2,728.5,252.6,723.1,252.6z"/>
		<path class="st1" d="M703.9,224.1L703.9,224.1v7.4h-3.8v1.9h3.9v14.8c-0.1,1.5,0.1,2.6,0.5,3.5c0.4,0.8,1,1.5,1.7,1.9
			s1.5,0.7,2.4,0.8c0.4,0,0.7,0.1,1.3,0v-1.7c-0.3,0-0.7,0-0.8,0c-0.7-0.1-1.3-0.3-1.8-0.6s-0.8-0.8-1.1-1.4
			c-0.2-0.6-0.4-1.4-0.4-2.5v-14.8h5.6v-1.9h-5.5v-7.4l0,0l0,0l0,0l0,0"/>
		<polyline class="st1" points="676.4,235.8 676.4,231.1 674.6,231.1 674.6,253.4 		"/>
	</g>
</g>
</svg>
